<svg width="64" height="64" viewBox="-2.406 0.594 75.643 76.17" fill="none" xmlns="http://www.w3.org/2000/svg">
<g id="Glass icon / General / Liferay Data Platform">
<g id="Light">
<g id="Group 1516">
<g id="Group 1504">
<g id="Group 1333">
<g id="Group 1332" filter="url(#filter0_dii_0_1)">
<g id="Group 1505">
<g>
<g opacity="0.3" filter="url(#g3d_shadow_0)"><path d="Vector" transform="translate(0.484 2.714)" fill="#264A7A"/></g>
<g opacity="0.72"><path d="Vector" transform="translate(0.692 1.044)" fill="rgb(96,140,200)"/><path d="Vector" transform="translate(0.615 0.928)" fill="rgb(106,148,205)"/><path d="Vector" transform="translate(0.538 0.812)" fill="rgb(116,156,210)"/><path d="Vector" transform="translate(0.461 0.696)" fill="rgb(126,165,215)"/><path d="Vector" transform="translate(0.384 0.580)" fill="rgb(136,173,220)"/><path d="Vector" transform="translate(0.307 0.464)" fill="rgb(146,181,226)"/><path d="Vector" transform="translate(0.231 0.348)" fill="rgb(156,189,231)"/><path d="Vector" transform="translate(0.154 0.232)" fill="rgb(166,198,236)"/><path d="Vector" transform="translate(0.077 0.116)" fill="rgb(176,206,241)"/><path d="Vector" transform="translate(0.000 0.000)" fill="rgb(186,214,246)"/></g>
<path d="Vector" fill="url(#g3d_face_0)"/>
<g clip-path="url(#g3d_clip_0)"><g filter="url(#g3d_soft_0)"><path d="Vector" transform="translate(-0.331 -0.499)" fill="url(#g3d_bevel_0)"/></g></g>
<path d="Vector" fill="none" stroke="url(#g3d_rim_0)" stroke-width="0.459" opacity="0.85"/>
</g>
<path id="Vector_2" d="M40.0117 16.7882C37.0034 15.6699 33.7489 15.0566 30.3501 15.0566C25.6243 15.0566 21.1746 16.2408 17.2802 18.3269L30.3501 42.779L40.0117 16.7882Z" fill="#14FFFB"/>
<path id="Vector_3" d="M40.0133 16.7869L30.35 42.7761L10.7491 23.1752C5.73159 28.1911 2.6292 35.1221 2.6292 42.7777C2.6292 58.0873 15.0404 70.5001 30.3516 70.5001C45.6628 70.5001 58.074 58.0889 58.074 42.7777C58.074 30.8669 50.5611 20.7111 40.0148 16.7884L40.0133 16.7869Z" fill="url(#paint0_linear_0_1)"/>
<foreignObject x="25.5267" y="5.28003" width="42.4476" height="44.0082"><div xmlns="http://www.w3.org/1999/xhtml" style="backdrop-filter:blur(2px);clip-path:url(#bgblur_0_0_1_clip_path);height:100%;width:100%"></div></foreignObject><g id="Vector_4" filter="url(#filter1_dii_0_1)" data-figma-bg-blur-radius="4">
<path d="M62.5079 33.0723C61.7889 30.654 60.8322 28.3735 59.6745 26.2439C59.6741 26.2431 59.6746 26.2422 59.6755 26.2421C59.6764 26.242 59.6769 26.2411 59.6764 26.2403C58.1119 23.3713 56.1417 20.7279 53.8568 18.4001C53.8558 18.3991 53.8542 18.3991 53.8533 18.4002C53.8524 18.4013 53.8508 18.4014 53.8498 18.4004C49.6408 14.0944 44.2451 10.9528 38.7013 9.35328C37.6421 9.04767 36.5734 9.73011 36.3311 10.8056L29.5763 40.7965C29.3066 41.9937 30.1688 43.1491 31.3932 43.2315L61.9003 45.2836C63.0037 45.3578 63.9639 44.5222 63.9731 43.4163C64.0017 39.9984 63.5311 36.5184 62.5079 33.0723Z" fill="url(#paint1_linear_0_1)" fill-opacity="0.3" shape-rendering="crispEdges"/>
</g>
</g>
</g>
</g>
</g>
</g>
</g>
</g>
<defs>
<linearGradient id="g3d_face_0" x1="0" y1="0" x2="1" y2="1"><stop offset="0" stop-color="#F2F8FF" stop-opacity="0.86"/><stop offset="0.5" stop-color="#C9DFF6" stop-opacity="0.68"/><stop offset="1" stop-color="#9BC0E8" stop-opacity="0.78"/></linearGradient>
<linearGradient id="g3d_bevel_0" x1="0" y1="0" x2="0.9" y2="1">
<stop offset="0" stop-color="#FFFFFF" stop-opacity="0.85"/>
<stop offset="0.55" stop-color="#FFFFFF" stop-opacity="0.12"/>
<stop offset="1" stop-color="#FFFFFF" stop-opacity="0"/>
</linearGradient>
<linearGradient id="g3d_rim_0" x1="0" y1="0" x2="1" y2="1"><stop offset="0" stop-color="#FFFFFF" stop-opacity="0.98"/><stop offset="0.45" stop-color="#AFCDEE" stop-opacity="0.62"/><stop offset="1" stop-color="#6E9AD0" stop-opacity="0.72"/></linearGradient>
<clipPath id="g3d_clip_0"><path d="Vector"/></clipPath>
<filter id="g3d_soft_0" x="-30%" y="-30%" width="160%" height="160%"><feGaussianBlur stdDeviation="0.306"/></filter>
<filter id="g3d_shadow_0" x="-40%" y="-40%" width="180%" height="180%"><feGaussianBlur stdDeviation="2.297"/></filter>
<filter id="filter0_dii_0_1" x="-1.3708" y="5.28003" width="69.3451" height="69.2201" filterUnits="userSpaceOnUse" color-interpolation-filters="sRGB">
<feFlood flood-opacity="0" result="BackgroundImageFix"/>
<feColorMatrix in="SourceAlpha" type="matrix" values="0 0 0 0 0 0 0 0 0 0 0 0 0 0 0 0 0 0 127 0" result="hardAlpha"/>
<feOffset dx="1.3"/>
<feGaussianBlur stdDeviation="0.65"/>
<feComposite in2="hardAlpha" operator="out"/>
<feColorMatrix type="matrix" values="0 0 0 0 0 0 0 0 0 0.344262 0 0 0 0 1 0 0 0 0.6 0"/>
<feBlend mode="normal" in2="BackgroundImageFix" result="effect1_dropShadow_0_1"/>
<feBlend mode="normal" in="SourceGraphic" in2="effect1_dropShadow_0_1" result="shape"/>
<feColorMatrix in="SourceAlpha" type="matrix" values="0 0 0 0 0 0 0 0 0 0 0 0 0 0 0 0 0 0 127 0" result="hardAlpha"/>
<feOffset dy="1.5"/>
<feGaussianBlur stdDeviation="0.5"/>
<feComposite in2="hardAlpha" operator="arithmetic" k2="-1" k3="1"/>
<feColorMatrix type="matrix" values="0 0 0 0 1 0 0 0 0 1 0 0 0 0 1 0 0 0 1 0"/>
<feBlend mode="normal" in2="shape" result="effect2_innerShadow_0_1"/>
<feColorMatrix in="SourceAlpha" type="matrix" values="0 0 0 0 0 0 0 0 0 0 0 0 0 0 0 0 0 0 127 0" result="hardAlpha"/>
<feOffset dy="3"/>
<feGaussianBlur stdDeviation="2.5"/>
<feComposite in2="hardAlpha" operator="arithmetic" k2="-1" k3="1"/>
<feColorMatrix type="matrix" values="0 0 0 0 0.376471 0 0 0 0 0.623529 0 0 0 0 1 0 0 0 0.4 0"/>
<feBlend mode="normal" in2="effect2_innerShadow_0_1" result="effect3_innerShadow_0_1"/>
</filter>
<filter id="filter1_dii_0_1" x="25.5267" y="5.28003" width="42.4476" height="44.0082" filterUnits="userSpaceOnUse" color-interpolation-filters="sRGB">
<feFlood flood-opacity="0" result="BackgroundImageFix"/>
<feColorMatrix in="SourceAlpha" type="matrix" values="0 0 0 0 0 0 0 0 0 0 0 0 0 0 0 0 0 0 127 0" result="hardAlpha"/>
<feOffset dx="1.3"/>
<feGaussianBlur stdDeviation="0.65"/>
<feComposite in2="hardAlpha" operator="out"/>
<feColorMatrix type="matrix" values="0 0 0 0 0 0 0 0 0 0.344262 0 0 0 0 1 0 0 0 0.6 0"/>
<feBlend mode="normal" in2="BackgroundImageFix" result="effect1_dropShadow_0_1"/>
<feBlend mode="normal" in="SourceGraphic" in2="effect1_dropShadow_0_1" result="shape"/>
<feColorMatrix in="SourceAlpha" type="matrix" values="0 0 0 0 0 0 0 0 0 0 0 0 0 0 0 0 0 0 127 0" result="hardAlpha"/>
<feOffset dy="1.5"/>
<feGaussianBlur stdDeviation="0.5"/>
<feComposite in2="hardAlpha" operator="arithmetic" k2="-1" k3="1"/>
<feColorMatrix type="matrix" values="0 0 0 0 1 0 0 0 0 1 0 0 0 0 1 0 0 0 1 0"/>
<feBlend mode="normal" in2="shape" result="effect2_innerShadow_0_1"/>
<feColorMatrix in="SourceAlpha" type="matrix" values="0 0 0 0 0 0 0 0 0 0 0 0 0 0 0 0 0 0 127 0" result="hardAlpha"/>
<feOffset dy="3"/>
<feGaussianBlur stdDeviation="2.5"/>
<feComposite in2="hardAlpha" operator="arithmetic" k2="-1" k3="1"/>
<feColorMatrix type="matrix" values="0 0 0 0 0.376471 0 0 0 0 0.623529 0 0 0 0 1 0 0 0 0.4 0"/>
<feBlend mode="normal" in2="effect2_innerShadow_0_1" result="effect3_innerShadow_0_1"/>
</filter>
<clipPath id="bgblur_0_0_1_clip_path" transform="translate(-25.5267 -5.28003)"><path d="M62.5079 33.0723C61.7889 30.654 60.8322 28.3735 59.6745 26.2439C59.6741 26.2431 59.6746 26.2422 59.6755 26.2421C59.6764 26.242 59.6769 26.2411 59.6764 26.2403C58.1119 23.3713 56.1417 20.7279 53.8568 18.4001C53.8558 18.3991 53.8542 18.3991 53.8533 18.4002C53.8524 18.4013 53.8508 18.4014 53.8498 18.4004C49.6408 14.0944 44.2451 10.9528 38.7013 9.35328C37.6421 9.04767 36.5734 9.73011 36.3311 10.8056L29.5763 40.7965C29.3066 41.9937 30.1688 43.1491 31.3932 43.2315L61.9003 45.2836C63.0037 45.3578 63.9639 44.5222 63.9731 43.4163C64.0017 39.9984 63.5311 36.5184 62.5079 33.0723Z"/>
</clipPath><linearGradient id="paint0_linear_0_1" x1="14.7881" y1="65.5266" x2="48.3318" y2="20.4842" gradientUnits="userSpaceOnUse">
<stop stop-color="#1514A4"/>
<stop offset="0.442308" stop-color="#0B5FFF"/>
<stop offset="1" stop-color="#0FFFFC"/>
</linearGradient>
<linearGradient id="paint1_linear_0_1" x1="61.2688" y1="5.5219" x2="23.0812" y2="24.8507" gradientUnits="userSpaceOnUse">
<stop stop-color="white" stop-opacity="0.2"/>
<stop offset="1" stop-color="#FCFDFF" stop-opacity="0.4"/>
</linearGradient>
</defs>
</svg>
