<svg width="64" height="64" viewBox="-4 0 72 72" fill="none" xmlns="http://www.w3.org/2000/svg">
<g id="Glass icon / General / Developer Tools">
<g id="Light">
<g id="Group 1000005946">
<path id="Vector" fill-rule="evenodd" clip-rule="evenodd" d="M47.2436 5.8581C46.9248 5.62333 46.5539 5.47075 46.1631 5.41372C45.7724 5.35669 45.3737 5.39693 45.0019 5.53092C43.2637 6.17235 41.6493 7.11307 40.2307 8.31112C39.9302 8.56817 39.6966 8.89541 39.5505 9.26427C39.4044 9.63314 39.3501 10.0324 39.3923 10.4273C39.5123 11.6409 39.2995 12.8126 38.7203 13.8216C38.1427 14.8321 37.2403 15.6041 36.1363 16.1054C35.7753 16.2664 35.4589 16.5142 35.2149 16.8269C34.9708 17.1396 34.8065 17.5077 34.7363 17.8992C34.4203 19.7336 34.4203 21.6091 34.7363 23.4435C34.8851 24.309 35.4723 24.9359 36.1363 25.2389C37.2403 25.7385 38.1427 26.5122 38.7219 27.5211C39.2995 28.5316 39.5123 29.7017 39.3923 30.9154C39.3203 31.6439 39.5635 32.4691 40.2307 33.0315C41.6493 34.2296 43.2637 35.1703 45.0019 35.8117C45.3735 35.9456 45.7719 35.9858 46.1623 35.9287C46.5528 35.8717 46.9235 35.7192 47.242 35.4846C48.226 34.7722 49.3412 34.3709 50.4996 34.3709C51.658 34.3709 52.7716 34.7722 53.7556 35.4846C54.3476 35.9133 55.1796 36.1131 55.9972 35.8117C57.7354 35.1703 59.3498 34.2296 60.7684 33.0315C61.4356 32.4691 61.6804 31.6455 61.6068 30.9154C61.4868 29.7017 61.698 28.53 62.2788 27.5211C62.8564 26.5106 63.7588 25.7402 64.8628 25.2389C65.5252 24.9375 66.114 24.309 66.2628 23.4435C66.5787 21.6091 66.5787 19.7336 66.2628 17.8992C66.1926 17.5077 66.0283 17.1396 65.7843 16.8269C65.5402 16.5142 65.2238 16.2664 64.8628 16.1054C63.7588 15.6041 62.8564 14.8321 62.2772 13.8216C61.698 12.8126 61.4868 11.6409 61.6068 10.4273C61.6489 10.0324 61.5946 9.6332 61.4484 9.26435C61.3023 8.89551 61.0688 8.56826 60.7684 8.31112C59.3498 7.11307 57.7354 6.17235 55.9972 5.53092C55.6256 5.39721 55.2273 5.35711 54.8368 5.41414C54.4464 5.47117 54.0757 5.62359 53.7572 5.8581C52.7716 6.56887 51.6564 6.97179 50.4996 6.97179C49.3428 6.97179 48.2276 6.57048 47.2436 5.8581ZM45.6996 20.6713C45.6996 19.389 46.2053 18.1591 47.1054 17.2524C48.0056 16.3456 49.2265 15.8362 50.4996 15.8362C51.7726 15.8362 52.9935 16.3456 53.8937 17.2524C54.7939 18.1591 55.2996 19.389 55.2996 20.6713C55.2996 21.9537 54.7939 23.1835 53.8937 24.0903C52.9935 24.997 51.7726 25.5065 50.4996 25.5065C49.2265 25.5065 48.0056 24.997 47.1054 24.0903C46.2053 23.1835 45.6996 21.9537 45.6996 20.6713Z" fill="url(#paint0_linear_0_1)"/>
<foreignObject x="-1.50024" y="9.50769" width="56.1038" height="56.1038"><div xmlns="http://www.w3.org/1999/xhtml" style="backdrop-filter:blur(2px);clip-path:url(#bgblur_0_0_1_clip_path);height:100%;width:100%"></div></foreignObject><g id="Vector_2" filter="url(#filter0_dii_0_1)" data-figma-bg-blur-radius="4">
<path fill-rule="evenodd" clip-rule="evenodd" d="M5.88426 41.145C7.18604 41.4652 8.91918 41.9391 10.7136 42.5641C9.74875 43.4888 9.06978 44.9258 8.61033 46.1093C8.12849 47.3906 7.71608 48.6972 7.37492 50.0233C7.05586 51.2272 6.78274 52.4413 6.51983 53.6606C6.25182 54.8902 5.97615 56.1684 6.97928 57.175C7.98242 58.1817 9.26122 57.9025 10.4864 57.6361C11.6989 57.3723 12.9087 57.0982 14.1059 56.778C15.4273 56.4356 16.7292 56.0217 18.0061 55.5382C19.1853 55.0771 20.6147 54.3958 21.5387 53.4275C22.1513 55.2027 22.6185 56.9189 22.9401 58.2176C23.5935 60.879 26.5697 62.4313 29.1529 61.1608L33.9107 58.8247C34.8603 58.3582 35.6421 57.6074 36.1482 56.676C36.6544 55.7446 36.8598 54.6784 36.7363 53.6248L36.4096 50.8327L36.4147 50.8199C36.4289 50.7913 36.4499 50.7666 36.476 50.7482C45.568 44.1984 49.1517 36.6316 50.2238 30.1741C51.2779 23.8087 49.8639 18.7241 49.287 17.0104C49.1071 16.4724 48.804 15.9842 48.4019 15.5851C47.9998 15.1861 47.51 14.8873 46.9719 14.7127C45.2745 14.1594 40.2869 12.8326 33.995 13.9289C27.6214 15.0406 20.1042 18.6114 13.4422 27.5434C13.4236 27.5687 13.3991 27.5889 13.3707 27.6023L13.358 27.6074L10.4915 27.1976C9.40203 27.041 8.29128 27.2419 7.32486 27.7705C6.35844 28.299 5.58812 29.1268 5.12872 30.1305L2.90039 35.0076C1.72113 37.5922 3.27305 40.497 5.88426 41.1425M13.3682 47.9689C12.8803 49.2869 12.4695 50.6322 12.1379 51.9982C13.4991 51.6654 14.8397 51.2532 16.153 50.7635C16.689 50.5561 17.3782 50.3332 17.8095 49.9285C18.2745 49.4454 18.5318 48.7983 18.526 48.1267C18.5202 47.4551 18.2517 46.8126 17.7785 46.3377C17.3052 45.8628 16.665 45.5934 15.9957 45.5876C15.3265 45.5817 14.6817 45.8399 14.2003 46.3065C13.8123 46.7778 13.5852 47.408 13.3682 47.9689ZM35.8557 28.1991C34.8985 27.2382 33.6001 26.6982 32.2461 26.6979C30.8921 26.6977 29.5935 27.2372 28.636 28.1978C27.6784 29.1585 27.1403 30.4615 27.1401 31.8202C27.1398 33.179 27.6775 34.4821 28.6347 35.4431C29.5919 36.404 30.8903 36.944 32.2443 36.9443C32.9147 36.9444 33.5786 36.812 34.198 36.5546C34.8175 36.2973 35.3803 35.92 35.8544 35.4444C36.3286 34.9687 36.7047 34.404 36.9614 33.7825C37.2181 33.161 37.3502 32.4948 37.3503 31.822C37.3505 31.1492 37.2185 30.483 36.9621 29.8614C36.7056 29.2398 36.3297 28.6749 35.8557 28.1991Z" fill="#99BCFF" fill-opacity="0.21" shape-rendering="crispEdges"/>
</g>
</g>
</g>
</g>
<defs>
<filter id="filter0_dii_0_1" x="-1.50024" y="9.50769" width="56.1038" height="56.1038" filterUnits="userSpaceOnUse" color-interpolation-filters="sRGB">
<feFlood flood-opacity="0" result="BackgroundImageFix"/>
<feColorMatrix in="SourceAlpha" type="matrix" values="0 0 0 0 0 0 0 0 0 0 0 0 0 0 0 0 0 0 127 0" result="hardAlpha"/>
<feOffset dx="1.3"/>
<feGaussianBlur stdDeviation="0.65"/>
<feComposite in2="hardAlpha" operator="out"/>
<feColorMatrix type="matrix" values="0 0 0 0 0 0 0 0 0 0.344262 0 0 0 0 1 0 0 0 0.6 0"/>
<feBlend mode="normal" in2="BackgroundImageFix" result="effect1_dropShadow_0_1"/>
<feBlend mode="normal" in="SourceGraphic" in2="effect1_dropShadow_0_1" result="shape"/>
<feColorMatrix in="SourceAlpha" type="matrix" values="0 0 0 0 0 0 0 0 0 0 0 0 0 0 0 0 0 0 127 0" result="hardAlpha"/>
<feOffset dy="1.5"/>
<feGaussianBlur stdDeviation="0.5"/>
<feComposite in2="hardAlpha" operator="arithmetic" k2="-1" k3="1"/>
<feColorMatrix type="matrix" values="0 0 0 0 1 0 0 0 0 1 0 0 0 0 1 0 0 0 1 0"/>
<feBlend mode="normal" in2="shape" result="effect2_innerShadow_0_1"/>
<feColorMatrix in="SourceAlpha" type="matrix" values="0 0 0 0 0 0 0 0 0 0 0 0 0 0 0 0 0 0 127 0" result="hardAlpha"/>
<feOffset dy="3"/>
<feGaussianBlur stdDeviation="2.5"/>
<feComposite in2="hardAlpha" operator="arithmetic" k2="-1" k3="1"/>
<feColorMatrix type="matrix" values="0 0 0 0 0.376471 0 0 0 0 0.623529 0 0 0 0 1 0 0 0 0.4 0"/>
<feBlend mode="normal" in2="effect2_innerShadow_0_1" result="effect3_innerShadow_0_1"/>
</filter>
<clipPath id="bgblur_0_0_1_clip_path" transform="translate(1.50024 -9.50769)"><path fill-rule="evenodd" clip-rule="evenodd" d="M5.88426 41.145C7.18604 41.4652 8.91918 41.9391 10.7136 42.5641C9.74875 43.4888 9.06978 44.9258 8.61033 46.1093C8.12849 47.3906 7.71608 48.6972 7.37492 50.0233C7.05586 51.2272 6.78274 52.4413 6.51983 53.6606C6.25182 54.8902 5.97615 56.1684 6.97928 57.175C7.98242 58.1817 9.26122 57.9025 10.4864 57.6361C11.6989 57.3723 12.9087 57.0982 14.1059 56.778C15.4273 56.4356 16.7292 56.0217 18.0061 55.5382C19.1853 55.0771 20.6147 54.3958 21.5387 53.4275C22.1513 55.2027 22.6185 56.9189 22.9401 58.2176C23.5935 60.879 26.5697 62.4313 29.1529 61.1608L33.9107 58.8247C34.8603 58.3582 35.6421 57.6074 36.1482 56.676C36.6544 55.7446 36.8598 54.6784 36.7363 53.6248L36.4096 50.8327L36.4147 50.8199C36.4289 50.7913 36.4499 50.7666 36.476 50.7482C45.568 44.1984 49.1517 36.6316 50.2238 30.1741C51.2779 23.8087 49.8639 18.7241 49.287 17.0104C49.1071 16.4724 48.804 15.9842 48.4019 15.5851C47.9998 15.1861 47.51 14.8873 46.9719 14.7127C45.2745 14.1594 40.2869 12.8326 33.995 13.9289C27.6214 15.0406 20.1042 18.6114 13.4422 27.5434C13.4236 27.5687 13.3991 27.5889 13.3707 27.6023L13.358 27.6074L10.4915 27.1976C9.40203 27.041 8.29128 27.2419 7.32486 27.7705C6.35844 28.299 5.58812 29.1268 5.12872 30.1305L2.90039 35.0076C1.72113 37.5922 3.27305 40.497 5.88426 41.1425M13.3682 47.9689C12.8803 49.2869 12.4695 50.6322 12.1379 51.9982C13.4991 51.6654 14.8397 51.2532 16.153 50.7635C16.689 50.5561 17.3782 50.3332 17.8095 49.9285C18.2745 49.4454 18.5318 48.7983 18.526 48.1267C18.5202 47.4551 18.2517 46.8126 17.7785 46.3377C17.3052 45.8628 16.665 45.5934 15.9957 45.5876C15.3265 45.5817 14.6817 45.8399 14.2003 46.3065C13.8123 46.7778 13.5852 47.408 13.3682 47.9689ZM35.8557 28.1991C34.8985 27.2382 33.6001 26.6982 32.2461 26.6979C30.8921 26.6977 29.5935 27.2372 28.636 28.1978C27.6784 29.1585 27.1403 30.4615 27.1401 31.8202C27.1398 33.179 27.6775 34.4821 28.6347 35.4431C29.5919 36.404 30.8903 36.944 32.2443 36.9443C32.9147 36.9444 33.5786 36.812 34.198 36.5546C34.8175 36.2973 35.3803 35.92 35.8544 35.4444C36.3286 34.9687 36.7047 34.404 36.9614 33.7825C37.2181 33.161 37.3502 32.4948 37.3503 31.822C37.3505 31.1492 37.2185 30.483 36.9621 29.8614C36.7056 29.2398 36.3297 28.6749 35.8557 28.1991Z"/>
</clipPath><linearGradient id="paint0_linear_0_1" x1="41.5169" y1="33.1258" x2="60.5277" y2="7.23616" gradientUnits="userSpaceOnUse">
<stop stop-color="#1514A4"/>
<stop offset="0.442308" stop-color="#0B5FFF"/>
<stop offset="1" stop-color="#0FFFFC"/>
</linearGradient>
</defs>
</svg>
